<svg xmlns="http://www.w3.org/2000/svg" viewBox="0 0 190.25 135.63"><defs><style>.cls-1,.cls-11{fill:#fff;}.cls-1,.cls-10,.cls-11,.cls-2,.cls-3,.cls-4,.cls-5,.cls-6,.cls-7,.cls-8,.cls-9{stroke:#036;stroke-linejoin:round;}.cls-1,.cls-10,.cls-11,.cls-3,.cls-4,.cls-7,.cls-9{stroke-width:2.5px;}.cls-2,.cls-5,.cls-6,.cls-8{fill:none;}.cls-2,.cls-8{stroke-width:3.79px;}.cls-3{fill:#f39;}.cls-10,.cls-11,.cls-3,.cls-6,.cls-8,.cls-9{stroke-linecap:round;}.cls-4{fill:#306baa;}.cls-5{stroke-width:9.84px;}.cls-6{stroke-width:3.03px;}.cls-7{fill:#036;}.cls-9{fill:#185184;}.cls-10{fill:#d7d2cb;}</style></defs><title>Asset 1</title><g id="Layer_2" data-name="Layer 2"><g id="Right_Patch" data-name="Right Patch"><polygon class="cls-1" points="34.95 55.81 14.34 55.81 9.97 41.43 30.58 41.43 34.95 55.81"/><path class="cls-2" d="M47.65,65.29S34,98.4,21.58,68.08"/><path class="cls-3" d="M96,25.36H92.22V11.73a4.92,4.92,0,1,0-9.84,0V22H78.6V11.73a8.71,8.71,0,1,1,17.41,0Z"/><rect class="cls-1" x="45.92" y="25.36" width="74.95" height="95.39"/><rect class="cls-4" x="120.87" y="25.36" width="34.07" height="95.39"/><rect class="cls-4" x="86.8" y="18.55" width="13.63" height="6.81"/><rect class="cls-4" x="76.97" y="21.95" width="6.81" height="3.41"/><path class="cls-5" d="M93.62,18.55h0A13.63,13.63,0,0,1,107.24,4.92h0a13.63,13.63,0,0,1,13.63,13.63v6.81"/><line class="cls-6" x1="59.55" y1="45.8" x2="59.55" y2="45.8"/><line class="cls-6" x1="93.62" y1="45.8" x2="93.62" y2="45.8"/><path class="cls-7" d="M96.64,60.36a26.5,26.5,0,0,1-39.34,0Z"/><path class="cls-8" d="M127.68,66.24C74.93,108.82,39.84,69.1,39.84,69.1"/><polygon class="cls-3" points="40.9 69.1 16.29 69.1 11.92 54.72 36.53 54.72 40.9 69.1"/><circle class="cls-9" cx="137.9" cy="40.22" r="6.81"/><path class="cls-3" d="M137.9,46.46h0a5.57,5.57,0,0,1-1.34-7.13L137.9,37l1.34,2.31a5.57,5.57,0,0,1-1.34,7.13Z"/><circle class="cls-10" cx="59.55" cy="107.12" r="6.81"/><circle class="cls-10" cx="72.71" cy="110.53" r="3.41"/><circle class="cls-10" cx="110.65" cy="110.53" r="3.41"/><line class="cls-11" x1="59.55" y1="100.31" x2="59.55" y2="103.09"/><line class="cls-11" x1="64.37" y1="102.3" x2="62.4" y2="104.27"/><line class="cls-11" x1="66.36" y1="107.12" x2="63.58" y2="107.12"/><line class="cls-11" x1="64.37" y1="111.94" x2="62.4" y2="109.97"/><line class="cls-11" x1="59.55" y1="113.94" x2="59.55" y2="111.16"/><line class="cls-11" x1="54.73" y1="111.94" x2="56.7" y2="109.97"/><line class="cls-11" x1="52.74" y1="107.12" x2="55.51" y2="107.12"/><line class="cls-11" x1="54.73" y1="102.3" x2="56.7" y2="104.27"/><line class="cls-11" x1="72.71" y1="110.53" x2="72.71" y2="110.53"/><line class="cls-11" x1="103.84" y1="113.94" x2="100.43" y2="113.94"/><line class="cls-11" x1="96.64" y1="113.94" x2="96.64" y2="113.94"/><rect class="cls-9" x="66.36" y="120.75" width="20.44" height="13.63"/><polygon class="cls-7" points="86.8 134.38 59.55 134.38 66.36 127.56 86.8 127.56 86.8 134.38"/><rect class="cls-9" x="114.06" y="120.75" width="20.44" height="13.63"/><polygon class="cls-7" points="134.5 134.38 107.24 134.38 114.06 127.56 134.5 127.56 134.5 134.38"/><line class="cls-9" x1="1.25" y1="134.38" x2="189" y2="134.38"/><polygon class="cls-3" points="11.92 54.72 21.58 47.03 36.53 54.72 11.92 54.72"/></g></g></svg>
